<?xml version="1.0" encoding="utf-8"?>
<!-- Generator: Adobe Illustrator 28.0.0, SVG Export Plug-In . SVG Version: 6.00 Build 0)  -->
<svg version="1.1" id="Layer_2_00000109742619489476350740000007846149442701340350_"
	 xmlns="http://www.w3.org/2000/svg" xmlns:xlink="http://www.w3.org/1999/xlink" x="0px" y="0px" viewBox="0 0 224.1 90"
	 style="enable-background:new 0 0 224.1 90;" xml:space="preserve">
<style type="text/css">
	.st0{fill:#FFFFFF;}
</style>
<g id="Layer_1-2">
	<path class="st0" d="M155.4,16.4c-65.7-36.5-205-4.9-137.4,26.5C2.5,33.9,17.4-0.9,155.4,16.4z"/>
	<g>
		<path class="st0" d="M31.5,24.8l6.8,0l0.5,17.5L47,24.8h4.3l0.6,17.5l8.2-17.5h2.7L50.2,51.3h-4.5l-0.7-16.8l-7.9,16.8h-4.6
			C32.5,51.2,31.4,24.8,31.5,24.8z"/>
		<path class="st0" d="M57.6,51.3l13.8-26.4h5.9l1.8,26.5l-6.8,0l-0.4-6l-8.5,0l-3.1,6H57.6L57.6,51.3z M64.6,42.9l7.2,0l-0.8-12.5
			L64.6,42.9L64.6,42.9z"/>
		<path class="st0" d="M84.5,27.2l0.5-2.4l20.8,0l-0.5,2.4l-7.1,0l-5.2,24.1l-6.8,0l5.2-24.1L84.5,27.2L84.5,27.2z"/>
		<path class="st0" d="M102.6,51.4l5.8-26.5l16.6,0l-0.5,2.4l-9.8,0l-1.8,8.4l8.3,0l-0.5,2.3l-8.3,0l-2.4,11.1l11.4,0l-0.5,2.3
			L102.6,51.4L102.6,51.4z"/>
		<path class="st0" d="M123.5,51.4l5.8-26.5l10.5,0l2,0.1c1.1,0.1,1.9,0.3,2.4,0.4c0.6,0.1,1.2,0.4,2,0.8c0.7,0.4,1.3,1,1.8,1.8
			s0.6,1.8,0.6,2.8c-0.1,0.8-0.3,1.6-0.6,2.4c-0.4,0.8-1.1,1.7-2,2.5c-1,0.9-2.2,1.6-3.8,2l-1.2,0.2l1,0.2c2.4,0.7,3.5,2.1,3.4,4.3
			c0,0.2,0,0.4,0,0.5c0,0.2,0,0.4,0,0.5l-0.3,1.3l-0.2,0.8l-0.2,0.8l-0.2,1.2c-0.1,0.3-0.1,0.6-0.2,0.8c0,0.3-0.1,0.5-0.1,0.8
			c0,0.7,0.1,1.4,0.3,2l-7,0c-0.1-0.3-0.1-0.6-0.2-0.8c0-0.2,0-0.5,0-0.8c0-0.5,0.2-1.5,0.5-2.8l0.6-2.2l0.2-0.7
			c0.1-0.3,0.1-0.7,0.2-1.3s0.1-0.8,0.1-0.9c0.1-1.3-0.2-2.2-0.7-2.7c-0.5-0.5-1.4-0.7-2.8-0.7h-2.1l-2.8,12.7L123.5,51.4
			L123.5,51.4z M133.5,36.7h2c1,0,1.8,0,2.3-0.2c0.5-0.1,1.1-0.4,1.8-0.9c0.7-0.5,1.3-1.2,1.7-2.3s0.6-2,0.7-2.8
			c0.1-2.3-1.1-3.5-3.8-3.5h-2.5L133.5,36.7L133.5,36.7z"/>
		<path class="st0" d="M151.1,27.4l0.5-2.4l20.8,0l-0.5,2.4l-7.1,0l-5.2,24.1l-6.8,0l5.2-24.1L151.1,27.4L151.1,27.4z"/>
		<path class="st0" d="M169.2,51.5l5.8-26.5l6.8,0L176,51.5L169.2,51.5z"/>
		<path class="st0" d="M183.7,27.5l0.5-2.4l20.8,0l-0.5,2.4l-7.1,0l-5.2,24.1l-6.8,0l5.2-24.1L183.7,27.5L183.7,27.5z"/>
		<path class="st0" d="M201.8,51.6l5.8-26.5l16.6,0l-0.5,2.4l-9.9,0l-1.8,8.4l8.3,0l-0.5,2.3l-8.3,0L209,49.3l11.4,0l-0.5,2.3
			L201.8,51.6L201.8,51.6z"/>
	</g>
	<g>
		<path class="st0" d="M68.8,58.7h4.8c1,0,1.9,0.3,2.5,0.8c0.5,0.5,0.8,1.2,0.8,2.1c0,1.3-0.6,2.1-1.8,2.5v0.1
			c1.3,0.4,2.3,1.3,2.3,2.9c0,0.9-0.3,1.7-0.8,2.3c-0.6,0.6-1.6,1-2.8,1h-5C68.8,70.3,68.8,58.7,68.8,58.7z M73.7,63.8
			c1.4,0,2.2-0.8,2.2-2.1s-0.8-2-2.2-2h-3.8v4.2C69.9,63.8,73.7,63.8,73.7,63.8z M73.8,69.3c0.9,0,1.6-0.3,2-0.7
			c0.4-0.4,0.6-0.9,0.6-1.6c0-1.5-1-2.3-2.6-2.3h-3.9v4.6H73.8L73.8,69.3z"/>
		<path class="st0" d="M79.1,67.8v-5.9h1v5.9c0,1.3,0.8,1.9,2,1.9c1.4,0,2.4-1.1,2.4-2.5v-5.2h1v8.4h-1v-1.2h0
			c-0.6,0.8-1.3,1.4-2.6,1.4C80.3,70.5,79.1,69.5,79.1,67.8L79.1,67.8z"/>
		<path class="st0" d="M87.7,58.7h1v1.4h-1V58.7z M87.7,61.9h1v8.4h-1V61.9z"/>
		<path class="st0" d="M90.9,58.7h1v11.6h-1V58.7z"/>
		<path class="st0" d="M93.6,66.2c0-2.8,1.6-4.4,3.6-4.4c1.3,0,2.2,0.6,2.8,1.6h0v-4.6h1v11.6h-1v-1.2h0c-0.6,1-1.5,1.5-2.7,1.5
			C94.9,70.6,93.6,68.7,93.6,66.2L93.6,66.2z M100,66.2c0-2.1-1-3.6-2.8-3.6c-1.7,0-2.6,1.5-2.6,3.6c0,2,0.8,3.6,2.6,3.6
			C99,69.7,100,68.3,100,66.2z"/>
		<path class="st0" d="M103.1,58.7h1v1.4h-1V58.7z M103.1,61.9h1v8.4h-1V61.9z"/>
		<path class="st0" d="M106.2,61.9h1v1.3h0c0.6-0.8,1.5-1.5,2.8-1.5c1.6,0,2.7,0.9,2.7,2.6v6h-1v-5.9c0-1.3-0.7-1.8-1.9-1.8
			c-1.4,0-2.6,1-2.6,2.4v5.3h-1L106.2,61.9L106.2,61.9z"/>
		<path class="st0" d="M114.7,71.1h1c0.2,1,1.1,1.4,2.4,1.4c1.8,0,2.6-0.9,2.6-2.4v-1.3h-0.1c-0.6,0.9-1.4,1.5-2.7,1.5
			c-2.2,0-3.6-1.7-3.6-4.2c0-2.7,1.7-4.2,3.6-4.2c1.3,0,2.1,0.6,2.7,1.5h0.1v-1.3h1V70c0,0.9-0.3,1.7-0.8,2.3c-0.6,0.7-1.6,1-2.8,1
			C116,73.3,114.9,72.3,114.7,71.1L114.7,71.1z M120.8,66c0-2-0.9-3.4-2.7-3.4c-1.7,0-2.6,1.3-2.6,3.4c0,1.9,0.8,3.3,2.6,3.3
			C119.9,69.3,120.8,68,120.8,66L120.8,66z"/>
		<path class="st0" d="M126.2,66.6h1.1c0.1,2,1.4,3.1,3.6,3.1c1.7,0,3-0.9,3-2.4s-1.1-2-3.6-2.5c-2.1-0.4-3.7-1.1-3.7-3.1
			c0-1.8,1.6-3.1,3.9-3.1c2.6,0,3.9,1.4,4.1,3.4h-1.1c-0.2-1.6-1.4-2.5-3-2.5c-1.8,0-2.8,0.8-2.8,2.1c0,1.4,1.1,1.8,3.2,2.2
			c2.3,0.4,4.1,1,4.1,3.4c0,2.1-1.7,3.4-4.1,3.4C127.8,70.5,126.3,68.8,126.2,66.6z"/>
		<path class="st0" d="M136.3,66.1c0-2.5,1.5-4.4,3.8-4.4c2.7,0,3.6,2.2,3.6,4.6h-6.4c0.1,1.9,1,3.4,2.9,3.4c1.4,0,2.1-0.8,2.5-1.9
			h1c-0.4,1.7-1.6,2.8-3.4,2.8C137.8,70.5,136.3,68.7,136.3,66.1L136.3,66.1z M142.7,65.5c-0.1-1.7-0.8-3-2.6-3s-2.6,1.3-2.8,3
			H142.7L142.7,65.5z"/>
		<path class="st0" d="M145.5,61.9h1v1.6h0c0.5-1,1.4-1.6,2.6-1.6c0.1,0,0.2,0,0.3,0v1c-0.6-0.1-1.3,0-1.8,0.4
			c-0.7,0.5-1.1,1.3-1.1,2.3v4.8h-1V61.9L145.5,61.9z"/>
		<path class="st0" d="M150.2,61.9h1.1l1.8,5.3c0.3,0.8,0.7,2.1,0.7,2.1h0c0,0,0.4-1.3,0.7-2.1l1.9-5.3h1l-3,8.4h-1.2L150.2,61.9
			L150.2,61.9z"/>
		<path class="st0" d="M158.8,58.7h1v1.4h-1V58.7z M158.8,61.9h1v8.4h-1V61.9z"/>
		<path class="st0" d="M161.5,66.1c0-2.5,1.4-4.4,3.8-4.4c1.9,0,3.1,1,3.4,2.7h-1c-0.2-1.2-1.1-1.9-2.4-1.9c-1.9,0-2.8,1.6-2.8,3.6
			s0.9,3.6,2.8,3.6c1.4,0,2.3-0.9,2.5-2.2h1c-0.2,1.9-1.4,3.1-3.4,3.1C162.9,70.5,161.5,68.6,161.5,66.1L161.5,66.1z"/>
		<path class="st0" d="M169.9,66.1c0-2.5,1.5-4.4,3.8-4.4c2.7,0,3.6,2.2,3.6,4.6h-6.4c0.1,1.9,1,3.4,2.9,3.4c1.4,0,2.1-0.8,2.5-1.9
			h1c-0.4,1.7-1.6,2.8-3.4,2.8C171.3,70.5,169.9,68.7,169.9,66.1L169.9,66.1z M176.3,65.5c-0.1-1.7-0.8-3-2.6-3s-2.6,1.3-2.8,3
			H176.3L176.3,65.5z"/>
		<path class="st0" d="M178.5,67.7h1c0.1,1.4,1.1,2,2.5,2s2.1-0.7,2.1-1.6s-0.5-1.2-2.2-1.6c-1.7-0.4-3.1-0.8-3.1-2.4
			c0-1.4,1.2-2.3,2.9-2.3c2,0,2.9,1,3.1,2.5h-1c-0.1-1.1-0.9-1.7-2.1-1.7s-1.9,0.6-1.9,1.4c0,1,0.8,1.2,2.4,1.6
			c1.7,0.4,2.9,0.8,2.9,2.5c0,1.5-1.2,2.5-3.2,2.5C179.7,70.6,178.5,69.3,178.5,67.7L178.5,67.7z"/>
	</g>
	<g>
		<g>
			<circle class="st0" cx="158.8" cy="85.6" r="1.2"/>
			<path class="st0" d="M128.8,86.8v-3.6c0-0.3,0-0.8-0.4-1.1c-0.2-0.2-0.6-0.3-0.9-0.3s-0.7,0.1-0.9,0.3c-0.4,0.4-0.4,0.9-0.4,1.3
				v3.4h-1.9v-3.4c0-0.8,0-1.6,0.8-2.3c0.6-0.6,1.4-0.9,2.4-0.9c1.1,0,2,0.4,2.4,0.9c0.6,0.7,0.7,1.6,0.7,2.4v3.4L128.8,86.8
				L128.8,86.8z"/>
			<g>
				<path class="st0" d="M149.2,80.2h2v6.6h-2V80.2z"/>
				<circle class="st0" cx="150.2" cy="78.7" r="1.1"/>
			</g>
			<path class="st0" d="M136.6,86.1c-0.6,0.6-1.2,0.8-1.9,0.8s-1.5-0.3-2.1-0.8c-0.8-0.7-1.1-1.6-1.1-2.6c0-0.9,0.4-1.8,1.1-2.4
				c0.6-0.6,1.4-0.9,2.2-0.9s1.4,0.3,1.9,0.8v-3.1h1.9v9h-1.9L136.6,86.1L136.6,86.1z M135.1,85.1c0.8,0,1.5-0.7,1.5-1.6
				s-0.7-1.7-1.6-1.7s-1.6,0.8-1.6,1.6S134.1,85.1,135.1,85.1L135.1,85.1z"/>
			<path class="st0" d="M153.7,84.8L153.7,84.8c0,0.4,0.3,0.7,0.7,0.7s0.6-0.2,0.6-0.6c0-0.5-0.5-0.5-1.3-0.8
				c-1.1-0.3-1.6-0.9-1.6-1.9c0-1.2,0.9-2.1,2.4-2.1c1.3,0,2.2,0.8,2.2,2H155c-0.1-0.4-0.2-0.6-0.6-0.6c-0.4,0-0.6,0.2-0.6,0.5
				c0,0.4,0.4,0.6,1,0.7c1.3,0.4,2,0.8,2,1.9c0,1.3-1,2.2-2.6,2.2c-1.4,0-2.3-0.8-2.4-2.1L153.7,84.8L153.7,84.8z"/>
			<path class="st0" d="M148.7,80.2l-2.9,6.8l-2.1-4.3l-1.9,4.3l-2.9-6.8h2l1.2,2.7l0.9-2l-0.3-0.7h1.8l1.2,2.8l1.1-2.8L148.7,80.2
				L148.7,80.2z"/>
			<path class="st0" d="M121.6,86.1c-0.6,0.6-1.2,0.8-1.9,0.8s-1.5-0.3-2.1-0.8c-0.8-0.7-1.2-1.6-1.2-2.6c0-0.9,0.4-1.8,1.1-2.5
				c0.6-0.6,1.4-0.9,2.2-0.9s1.4,0.3,1.8,0.8v-0.7h1.9v6.6h-1.9L121.6,86.1L121.6,86.1z M120.1,85.1c0.8,0,1.5-0.7,1.5-1.6
				s-0.7-1.7-1.6-1.7s-1.6,0.8-1.6,1.6S119.1,85.1,120.1,85.1L120.1,85.1z"/>
		</g>
		<g>
			<path class="st0" d="M57.1,83.6v3.3h-0.8V79h2.4c0.9,0,1.5,0.2,2,0.6c0.4,0.4,0.7,1,0.7,1.7S61,82.6,60.6,83s-1.1,0.6-2,0.6H57.1
				z M60,82.5c0.3-0.3,0.5-0.7,0.5-1.2s-0.2-0.9-0.5-1.2s-0.8-0.4-1.5-0.4h-1.5v3.3h1.5C59.2,82.9,59.7,82.8,60,82.5z"/>
			<path class="st0" d="M66.7,81.2c0.4,0.3,0.7,0.7,0.9,1.3v-1.7h0.8v6.1h-0.8v-1.7c-0.2,0.5-0.5,0.9-0.9,1.3s-1,0.5-1.6,0.5
				c-0.6,0-1-0.1-1.5-0.4s-0.8-0.6-1-1.1c-0.2-0.5-0.4-1-0.4-1.7s0.1-1.2,0.4-1.7s0.6-0.8,1-1.1s0.9-0.4,1.5-0.4
				C65.7,80.7,66.2,80.9,66.7,81.2L66.7,81.2z M63.6,82.1c-0.4,0.4-0.6,1-0.6,1.8s0.2,1.3,0.6,1.8c0.4,0.4,1,0.7,1.7,0.7
				c0.4,0,0.8-0.1,1.2-0.3c0.3-0.2,0.6-0.5,0.8-0.8c0.2-0.4,0.3-0.8,0.3-1.3s-0.1-0.9-0.3-1.3c-0.2-0.4-0.5-0.7-0.8-0.8
				s-0.7-0.3-1.2-0.3C64.6,81.4,64,81.6,63.6,82.1z"/>
			<path class="st0" d="M71.7,81c0.4-0.2,0.9-0.4,1.4-0.4v0.8h-0.3c-0.6,0-1.1,0.2-1.5,0.5c-0.4,0.3-0.6,0.8-0.6,1.6v3.3H70v-6.1
				h0.8v1.3C71,81.6,71.3,81.3,71.7,81L71.7,81z"/>
			<path class="st0" d="M76.9,86.2v0.7h-0.7c-0.6,0-1-0.1-1.3-0.4s-0.4-0.8-0.4-1.4v-3.6h-0.9v-0.7h0.9v-1.5h0.8v1.5h1.7v0.7h-1.7
				v3.6c0,0.4,0.1,0.7,0.2,0.9c0.2,0.2,0.4,0.2,0.8,0.2L76.9,86.2L76.9,86.2z"/>
			<path class="st0" d="M85.4,81.1c0.5,0.2,0.8,0.6,1.1,1.1s0.4,1,0.4,1.7s-0.1,1.2-0.4,1.7s-0.6,0.8-1.1,1.1s-1,0.4-1.6,0.4
				s-1.1-0.1-1.6-0.4s-0.8-0.6-1.1-1.1c-0.3-0.5-0.4-1-0.4-1.7s0.1-1.2,0.4-1.7c0.3-0.5,0.6-0.8,1.1-1.1s1-0.4,1.6-0.4
				S85,80.8,85.4,81.1L85.4,81.1z M82.7,81.7c-0.3,0.2-0.6,0.4-0.8,0.8s-0.3,0.8-0.3,1.4s0.1,1,0.3,1.3s0.5,0.6,0.8,0.8
				c0.3,0.2,0.7,0.3,1.1,0.3s0.8-0.1,1.1-0.3s0.6-0.4,0.8-0.8c0.2-0.4,0.3-0.8,0.3-1.3s-0.1-1-0.3-1.4s-0.5-0.6-0.8-0.8
				s-0.7-0.3-1.1-0.3S83.1,81.5,82.7,81.7z"/>
			<path class="st0" d="M89.7,79.5c-0.2,0.2-0.3,0.6-0.3,1.1v0.2h1.5v0.7h-1.5v5.4h-0.8v-5.4h-0.9v-0.7h0.9v-0.3
				c0-0.7,0.2-1.2,0.6-1.5c0.4-0.3,1-0.5,1.8-0.5v0.7C90.3,79.2,89.9,79.3,89.7,79.5L89.7,79.5z"/>
			<path class="st0" d="M97.7,86.2v0.7H97c-0.6,0-1-0.1-1.3-0.4s-0.4-0.8-0.4-1.4v-3.6h-0.9v-0.7h0.9v-1.5H96v1.5h1.7v0.7H96v3.6
				c0,0.4,0.1,0.7,0.2,0.9c0.2,0.2,0.4,0.2,0.8,0.2L97.7,86.2L97.7,86.2z"/>
			<path class="st0" d="M103.8,81.4c0.4,0.4,0.7,1.1,0.7,2v3.6h-0.8v-3.5c0-0.7-0.2-1.2-0.5-1.5s-0.8-0.5-1.4-0.5
				c-0.6,0-1.1,0.2-1.5,0.6s-0.5,1-0.5,1.7v3.2H99v-8.3h0.8v3.7c0.2-0.5,0.4-0.9,0.8-1.2c0.4-0.3,0.9-0.4,1.4-0.4
				C102.8,80.7,103.3,80.9,103.8,81.4L103.8,81.4z"/>
			<path class="st0" d="M110.1,85.9c0.4-0.3,0.6-0.7,0.7-1.1h0.8c-0.1,0.7-0.4,1.2-0.9,1.6s-1.2,0.6-1.9,0.6c-0.6,0-1.1-0.1-1.6-0.4
				c-0.4-0.2-0.8-0.6-1.1-1.1s-0.4-1-0.4-1.7s0.1-1.2,0.4-1.7s0.6-0.8,1.1-1.1c0.4-0.2,1-0.4,1.6-0.4s1.1,0.1,1.6,0.4s0.8,0.6,1,1
				c0.2,0.4,0.3,0.9,0.3,1.4c0,0.2,0,0.4,0,0.6h-5.1c0,0.5,0.1,0.9,0.3,1.3c0.2,0.3,0.5,0.6,0.8,0.8s0.7,0.2,1.1,0.2
				C109.3,86.3,109.8,86.2,110.1,85.9z M107.7,81.6c-0.3,0.2-0.6,0.4-0.8,0.8c-0.2,0.3-0.3,0.8-0.3,1.3h4.3c0-0.5-0.1-0.9-0.2-1.3
				s-0.4-0.6-0.8-0.8s-0.7-0.2-1.1-0.2S108,81.4,107.7,81.6z"/>
		</g>
		<g>
			<path class="st0" d="M169.9,81.3c0.4,0.3,0.7,0.7,0.9,1.3v-1.7h0.8v6.2c0,0.6-0.1,1.1-0.4,1.5s-0.6,0.8-1,1s-0.9,0.3-1.4,0.3
				c-0.8,0-1.4-0.2-2-0.6c-0.5-0.4-0.8-0.9-1-1.6h0.8c0.1,0.4,0.4,0.8,0.7,1.1c0.4,0.3,0.8,0.4,1.4,0.4c0.4,0,0.7-0.1,1.1-0.2
				c0.3-0.2,0.6-0.4,0.8-0.7c0.2-0.3,0.3-0.7,0.3-1.2v-1.8c-0.2,0.5-0.5,0.9-0.9,1.3c-0.4,0.3-1,0.5-1.6,0.5c-0.6,0-1-0.1-1.5-0.4
				s-0.8-0.6-1-1.1c-0.2-0.5-0.4-1-0.4-1.7s0.1-1.2,0.4-1.7s0.6-0.8,1-1.1s0.9-0.4,1.5-0.4C168.9,80.8,169.5,81,169.9,81.3
				L169.9,81.3z M166.9,82.2c-0.4,0.4-0.6,1-0.6,1.8s0.2,1.3,0.6,1.8s1,0.7,1.6,0.7c0.4,0,0.8-0.1,1.2-0.3c0.4-0.2,0.6-0.5,0.8-0.8
				c0.2-0.4,0.3-0.8,0.3-1.3s-0.1-0.9-0.3-1.3c-0.2-0.4-0.5-0.7-0.8-0.8s-0.7-0.3-1.2-0.3C167.9,81.5,167.3,81.8,166.9,82.2z"/>
			<path class="st0" d="M174.9,81.2c0.4-0.2,0.9-0.4,1.4-0.4v0.8h-0.3c-0.6,0-1.1,0.2-1.5,0.5c-0.4,0.3-0.6,0.8-0.6,1.6V87h-0.8
				v-6.1h0.8v1.3C174.2,81.7,174.5,81.4,174.9,81.2L174.9,81.2z"/>
			<path class="st0" d="M181.7,81.2c0.5,0.2,0.8,0.6,1.1,1.1s0.4,1,0.4,1.7s-0.1,1.2-0.4,1.7s-0.6,0.8-1.1,1.1s-1,0.4-1.6,0.4
				s-1.1-0.1-1.6-0.4c-0.5-0.2-0.8-0.6-1.1-1.1c-0.3-0.5-0.4-1-0.4-1.7s0.1-1.2,0.4-1.7c0.3-0.5,0.6-0.8,1.1-1.1
				c0.5-0.2,1-0.4,1.6-0.4S181.3,81,181.7,81.2L181.7,81.2z M179.1,81.8c-0.3,0.2-0.6,0.4-0.8,0.8s-0.3,0.8-0.3,1.4s0.1,1,0.3,1.3
				c0.2,0.4,0.5,0.6,0.8,0.8c0.3,0.2,0.7,0.3,1.1,0.3s0.8-0.1,1.1-0.3c0.3-0.2,0.6-0.4,0.8-0.8c0.2-0.4,0.3-0.8,0.3-1.3
				s-0.1-1-0.3-1.4c-0.2-0.4-0.5-0.6-0.8-0.8c-0.3-0.2-0.7-0.3-1.1-0.3S179.4,81.6,179.1,81.8z"/>
			<path class="st0" d="M189.9,80.9V87h-0.8v-1.5c-0.2,0.5-0.4,0.9-0.9,1.2s-0.9,0.4-1.4,0.4c-0.7,0-1.3-0.2-1.7-0.7
				c-0.4-0.4-0.7-1.1-0.7-2v-3.6h0.8v3.5c0,0.7,0.2,1.2,0.5,1.5c0.3,0.3,0.8,0.5,1.4,0.5c0.6,0,1.1-0.2,1.5-0.6s0.5-1,0.5-1.7v-3.2
				L189.9,80.9L189.9,80.9z"/>
			<path class="st0" d="M196.3,81.2c0.4,0.2,0.8,0.6,1,1.1s0.4,1,0.4,1.7s-0.1,1.2-0.4,1.7s-0.6,0.8-1,1.1s-0.9,0.4-1.5,0.4
				c-0.6,0-1.1-0.2-1.6-0.5c-0.4-0.3-0.7-0.7-0.9-1.3v4.6h-0.8v-9h0.8v1.7c0.2-0.5,0.5-0.9,0.9-1.3s1-0.5,1.6-0.5
				C195.4,80.8,195.9,81,196.3,81.2z M193.4,81.8c-0.4,0.2-0.6,0.5-0.8,0.8c-0.2,0.4-0.3,0.8-0.3,1.3s0.1,0.9,0.3,1.3
				c0.2,0.4,0.5,0.7,0.8,0.8c0.4,0.2,0.7,0.3,1.2,0.3c0.7,0,1.2-0.2,1.6-0.7c0.4-0.4,0.6-1,0.6-1.8s-0.2-1.3-0.6-1.8
				c-0.4-0.4-1-0.7-1.6-0.7C194.2,81.5,193.8,81.6,193.4,81.8z"/>
		</g>
	</g>
</g>
</svg>
