<?xml version="1.0" encoding="UTF-8"?>
<svg id="Layer_2" data-name="Layer 2" xmlns="http://www.w3.org/2000/svg" viewBox="0 0 1290.02 518.01">
  <defs>
    <style>
      .cls-1 {
        fill: #682124;
      }

      .cls-1, .cls-2 {
        stroke-width: 0px;
      }

      .cls-2 {
        fill: #00af6b;
      }
    </style>
  </defs>
  <g id="Layer_2-2" data-name="Layer 2">
    <g id="Layer_1-2" data-name="Layer 1-2">
      <path class="cls-1" d="m894.61,94.28C516.26-116.07-285.27,66.04,104.02,246.75,14.38,195.22,100.14-4.9,894.61,94.28Z"/>
      <g>
        <path class="cls-1" d="m181.04,142.47l39.15.09,3.07,100.93,47.32-100.81,24.87.06,3.51,100.82,47.46-100.74,15.44.07-73.1,152.17-25.94-.06-4.17-96.53-45.27,96.42-26.24-.06-6.1-152.34v-.02Z"/>
        <path class="cls-1" d="m331.38,295.14l79.16-152.15,33.96.08,10.61,152.35-39.33-.09-2.2-34.49-48.84-.11-17.94,34.48-15.43-.07h.01Zm40.16-47.94l41.23.09-4.47-71.68-36.77,71.58h0Z"/>
        <path class="cls-1" d="m486.58,156.69l2.91-13.53,119.83.27-2.91,13.53-40.67-.09-30.17,138.72-38.94-.09,30.17-138.72-40.23-.09h0Z"/>
        <path class="cls-1" d="m590.73,295.72l33.08-152.26,95.61.21-2.92,13.75-56.67-.13-10.46,48.21,47.8.11-2.89,13.11-47.8-.11-13.91,63.65,65.76.15-2.91,13.53-104.69-.23h0Z"/>
        <path class="cls-1" d="m710.99,295.99l33.08-152.26,60.35.14,11.43.66c6.02.72,10.66,1.47,13.94,2.25,3.27.78,7.04,2.31,11.32,4.57,4.27,2.27,7.65,5.8,10.12,10.6s3.55,10.09,3.23,15.88c-.27,4.8-1.5,9.48-3.7,14.06s-6.11,9.47-11.74,14.68c-5.63,5.21-12.98,9.07-22.06,11.59l-6.99,1.25,5.77,1.28c13.77,3.98,20.3,12.32,19.6,25.01-.05.99-.11,2.05-.18,3.17-.06,1.13-.11,2.05-.15,2.75l-1.62,7.61-.99,4.86-.96,4.44-1.36,7.19c-.41,1.69-.74,3.28-.98,4.76s-.4,3-.49,4.55c-.23,4.23.42,7.97,1.98,11.22l-40.45-.09c-.48-1.83-.79-3.39-.93-4.66-.15-1.27-.17-2.82-.07-4.65.17-3.1,1.14-8.39,2.9-15.86l3.16-12.48.9-4.02c.39-1.69.75-4.12,1.07-7.3s.49-4.83.5-4.97c.41-7.33-.91-12.41-3.93-15.24s-8.37-4.25-16.03-4.27l-11.93-.03-15.99,73.38-38.82-.09.02.02Zm57.48-84.92l11.46.03c5.91,0,10.26-.33,13.04-1.03,2.78-.7,6.19-2.42,10.24-5.16s7.24-7.07,9.59-12.99c2.35-5.92,3.65-11.21,3.91-15.86.73-13.25-6.62-19.9-22.04-19.94l-14.28-.03-11.91,54.98h-.01Z"/>
        <path class="cls-1" d="m869.87,157.55l2.91-13.53,119.83.27-2.91,13.53-40.67-.09-30.17,138.72-38.94-.09,30.17-138.72-40.23-.09h0Z"/>
        <path class="cls-1" d="m974.02,296.58l33.08-152.26,38.94.09-33.08,152.26-38.93-.09h-.01Z"/>
        <path class="cls-1" d="m1057.18,157.97l2.91-13.53,119.83.27-2.91,13.53-40.67-.09-30.17,138.72-38.94-.09,30.17-138.72-40.23-.09h.01Z"/>
        <path class="cls-1" d="m1161.33,297l33.08-152.26,95.61.21-2.92,13.75-56.67-.13-10.46,48.21,47.8.11-2.89,13.11-47.8-.11-13.91,63.65,65.76.15-2.91,13.53-104.69-.23h0Z"/>
      </g>
      <g>
        <path class="cls-1" d="m396.23,337.83h27.81c5.99,0,10.86,1.69,14.23,4.87,3.09,2.81,4.87,6.93,4.87,11.99,0,7.58-3.46,12.17-10.21,14.51v.28c7.68,2.15,13.02,7.58,13.02,16.48,0,5.43-1.69,9.83-4.87,13.11-3.46,3.56-8.9,5.71-15.83,5.71h-29.03v-66.96h.01Zm27.72,29.4c8.15,0,12.83-4.78,12.83-12.08s-4.87-11.8-12.64-11.8h-21.63v23.88h21.44Zm.94,31.84c5.15,0,8.9-1.5,11.33-3.84,2.15-2.15,3.37-5.24,3.37-9.18,0-8.52-5.9-13.39-14.7-13.39h-22.38v26.41h22.38Z"/>
        <path class="cls-1" d="m455.41,390.55v-34.18h5.81v33.8c0,7.3,4.4,10.86,11.42,10.86,8.24,0,14.05-6.18,14.05-14.42v-30.25h5.71v48.41h-5.71v-7.12h-.19c-3.37,4.68-7.49,8.24-15.17,8.24-9.36,0-15.92-5.62-15.92-15.36v.02Z"/>
        <path class="cls-1" d="m504.67,337.83h5.81v8.24h-5.81v-8.24Zm0,18.54h5.81v48.41h-5.81v-48.41Z"/>
        <path class="cls-1" d="m522.93,337.83h5.81v66.96h-5.81v-66.96Z"/>
        <path class="cls-1" d="m538.56,380.72c0-16.11,9.18-25.38,20.69-25.38,7.4,0,12.83,3.46,15.92,9.08h.19v-26.59h5.81v66.96h-5.81v-7.21h-.19c-3.56,5.53-8.43,8.52-15.73,8.52-13.02,0-20.88-10.49-20.88-25.38h0Zm37.27.09c0-11.89-5.71-20.6-16.2-20.6-9.55,0-15.08,8.52-15.08,20.6,0,11.33,4.87,20.41,15.08,20.41s16.2-8.33,16.2-20.41Z"/>
        <path class="cls-1" d="m593.44,337.83h5.81v8.24h-5.81v-8.24Zm0,18.54h5.81v48.41h-5.81v-48.41Z"/>
        <path class="cls-1" d="m611.42,356.37h5.81v7.4h.19c3.28-4.87,8.52-8.43,16.2-8.43,8.99,0,15.45,5.34,15.45,15.08v34.37h-5.81v-33.81c0-7.3-4.21-10.67-11.05-10.67-8.24,0-14.98,5.81-14.98,13.77v30.71h-5.81v-48.41h0Z"/>
        <path class="cls-1" d="m660.3,409.09h5.62c1.03,5.62,6.55,7.87,13.58,7.87,10.3,0,15.17-5.34,15.17-13.86v-7.68h-.28c-3.56,5.43-8.05,8.43-15.36,8.43-12.74,0-20.79-9.93-20.79-24.16,0-15.73,9.55-24.35,20.79-24.35,7.49,0,12.17,3.28,15.36,8.52h.28v-7.49h5.71v46.54c0,5.43-1.59,9.83-4.49,13.02-3.65,3.84-8.99,5.81-16.2,5.81-11.89,0-18.54-5.43-19.38-12.64h0Zm34.74-29.5c0-11.42-5.06-19.38-15.64-19.38-9.55,0-15.17,7.77-15.17,19.57,0,11.05,4.87,19.2,15.08,19.2,10.77,0,15.73-7.77,15.73-19.38h0Z"/>
        <path class="cls-1" d="m726.12,383.06h6.27c.66,11.33,8.33,17.7,20.88,17.7,9.83,0,17.14-4.96,17.14-14.05s-6.27-11.71-20.6-14.61c-12.36-2.43-21.07-6.18-21.07-17.89,0-10.67,8.99-17.7,22.38-17.7,14.89,0,22.38,8.05,23.6,19.57h-6.09c-1.12-9.46-7.87-14.33-17.42-14.33-10.21,0-16.39,4.87-16.39,12.27,0,7.96,6.18,10.39,18.17,12.64,13.02,2.53,23.79,5.71,23.79,19.76,0,11.89-9.55,19.57-23.6,19.57-17.6,0-26.31-9.93-27.06-22.94h0Z"/>
        <path class="cls-1" d="m784.74,380.62c0-14.51,8.71-25.38,22.1-25.38,15.54,0,20.88,12.83,20.79,26.41h-36.9c.28,10.86,5.52,19.38,16.57,19.38,8.05,0,12.27-4.31,14.14-10.86h5.62c-2.06,9.55-8.9,15.83-19.76,15.83-14.51,0-22.57-10.86-22.57-25.38h.01Zm36.8-3.56c-.28-9.55-4.78-17.04-14.7-17.04s-14.98,7.4-16.01,17.04h30.72,0Z"/>
        <path class="cls-1" d="m837.18,356.37h5.81v8.99h.19c3-5.62,8.05-9.36,14.8-9.36.75,0,1.22.09,1.59.19v5.71c-3.46-.56-7.3.19-10.3,2.34-3.75,2.81-6.27,7.3-6.27,13.02v27.53h-5.81v-48.41h-.01Z"/>
        <path class="cls-1" d="m864.52,356.37h6.18l10.39,30.71c1.59,4.68,3.93,12.27,3.93,12.27h.19s2.43-7.58,4.03-12.27l10.86-30.71h5.9l-17.51,48.41h-6.84l-17.14-48.41h.01Z"/>
        <path class="cls-1" d="m914.06,337.83h5.81v8.24h-5.81v-8.24Zm0,18.54h5.81v48.41h-5.81v-48.41Z"/>
        <path class="cls-1" d="m929.51,380.62c0-14.42,8.05-25.38,22.1-25.38,10.68,0,17.89,5.81,19.48,15.73h-5.81c-1.4-7.21-6.18-10.86-13.67-10.86-11.14,0-16.11,9.27-16.11,20.51s5.06,20.41,16.01,20.41c8.24,0,13.39-5.15,14.33-12.92h5.52c-1.12,10.96-8.33,17.89-19.85,17.89-14.14,0-22.01-10.96-22.01-25.38h0Z"/>
        <path class="cls-1" d="m977.82,380.62c0-14.51,8.71-25.38,22.1-25.38,15.54,0,20.88,12.83,20.79,26.41h-36.9c.28,10.86,5.53,19.38,16.58,19.38,8.05,0,12.27-4.31,14.14-10.86h5.62c-2.06,9.55-8.9,15.83-19.76,15.83-14.51,0-22.57-10.86-22.57-25.38h0Zm36.8-3.56c-.28-9.55-4.78-17.04-14.7-17.04s-14.98,7.4-16.01,17.04h30.71Z"/>
        <path class="cls-1" d="m1027.17,389.71h5.9c.84,8.15,6.46,11.42,14.23,11.42s12.27-3.75,12.27-9.36-3-7.12-12.92-9.36c-9.83-2.25-17.7-4.59-17.7-13.95,0-8.05,6.93-13.11,16.86-13.11,11.52,0,16.86,5.81,17.98,14.33h-5.81c-.66-6.27-4.96-9.55-12.17-9.55s-11.05,3.56-11.05,8.05c0,5.52,4.59,6.84,13.86,8.99,9.74,2.06,16.76,4.5,16.76,14.51,0,8.62-6.93,14.42-18.17,14.42-12.92,0-19.48-7.02-20.04-16.39h0Z"/>
      </g>
      <g>
        <g>
          <circle class="cls-2" cx="914.19" cy="492.85" r="6.67"/>
          <path class="cls-1" d="m741.09,499.54v-20.55c0-1.76-.06-4.45-2.13-6.46-1.25-1.19-3.26-2.01-5.14-2.01s-3.83.75-5.02,1.82c-2.51,2.19-2.45,5.27-2.45,7.59v19.6h-10.85v-19.79c0-4.39.19-8.97,4.7-13.54,3.51-3.57,7.9-5.2,13.8-5.2,6.58,0,11.29,2.26,13.86,5.02,3.64,3.95,4.08,9.28,4.08,13.73v19.79h-10.85Z"/>
          <g>
            <path class="cls-1" d="m858.7,461.52h11.65v38.01h-11.65v-38.01Z"/>
            <circle class="cls-1" cx="864.53" cy="453.15" r="6.62"/>
          </g>
          <path class="cls-1" d="m786.03,495.3c-3.32,3.25-6.71,4.45-11.22,4.45s-8.54-1.48-11.86-4.45c-4.38-3.88-6.63-8.96-6.63-14.89,0-5.44,2.12-10.31,6.07-14.12,3.53-3.46,7.83-5.22,12.63-5.22s8.12,1.55,10.66,4.8v-17.88h11.15v51.55h-10.8v-4.24h0Zm-8.75-5.65c4.8,0,8.82-3.95,8.82-9.18s-4.02-9.53-9.25-9.53-9.39,4.31-9.39,9.39,4.09,9.32,9.81,9.32h.01Z"/>
          <path class="cls-1" d="m884.61,487.86v.34c0,2.05,1.64,3.49,3.96,3.49s3.69-1.16,3.69-3.21c0-3.01-2.94-2.87-7.52-4.31-6.36-1.98-9.43-5.4-9.43-10.93,0-7.18,5.26-12.23,14.01-12.23,7.59,0,12.44,4.31,12.85,11.28h-9.77c-.41-2.39-1.3-3.42-3.21-3.42-2.12,0-3.35,1.23-3.35,3.01,0,2.53,2.26,3.14,6.01,4.17,7.52,2.05,11.28,4.92,11.28,11,0,7.38-5.81,12.71-14.69,12.71-8.2,0-13.26-4.44-14.01-11.89h10.18Z"/>
          <path class="cls-1" d="m855.95,461.55l-16.73,39.31-11.89-24.62-10.87,24.62-16.9-39.31h11.55l6.88,15.71,5.18-11.46-1.95-4.25h10.1l6.96,16.39,6.11-16.39h11.56Z"/>
          <path class="cls-1" d="m699.72,495.27c-3.32,3.25-6.71,4.45-11.24,4.45s-8.55-1.48-11.87-4.45c-4.38-3.89-6.64-8.98-6.64-14.91,0-5.44,2.12-10.32,6.08-14.13,3.53-3.46,7.84-5.23,12.65-5.23s8.13,1.55,10.67,4.81v-4.24h11.17v37.95h-10.81v-4.24h-.01Zm-8.76-5.65c4.81,0,8.83-3.96,8.83-9.19s-4.03-9.54-9.26-9.54-9.4,4.31-9.4,9.4,4.1,9.33,9.82,9.33h.01Z"/>
        </g>
        <g>
          <path class="cls-1" d="m328.42,481.21v18.89h-4.56v-45.31h13.56c5.1,0,8.9,1.18,11.41,3.54,2.51,2.36,3.76,5.59,3.76,9.7s-1.3,7.44-3.89,9.74c-2.59,2.29-6.35,3.44-11.28,3.44h-9Zm17.03-6.27c1.71-1.61,2.57-3.91,2.57-6.91s-.86-5.43-2.57-7.04-4.52-2.41-8.42-2.41h-8.61v18.77h8.61c3.9,0,6.7-.8,8.42-2.41h0Z"/>
          <path class="cls-1" d="m383.59,467.33c2.51,1.84,4.23,4.28,5.17,7.33v-9.64h4.43v35.09h-4.43v-9.64c-.94,3.04-2.67,5.48-5.17,7.33-2.51,1.84-5.54,2.76-9.09,2.76-3.17,0-6.01-.73-8.51-2.19-2.51-1.46-4.46-3.54-5.85-6.27-1.39-2.72-2.09-5.9-2.09-9.54s.7-6.89,2.09-9.61c1.39-2.72,3.33-4.8,5.82-6.23,2.48-1.44,5.33-2.15,8.55-2.15,3.56,0,6.59.92,9.09,2.76h0Zm-17.42,4.98c-2.38,2.51-3.57,5.92-3.57,10.25s1.19,7.74,3.57,10.25,5.54,3.76,9.48,3.76c2.48,0,4.72-.58,6.71-1.74s3.56-2.8,4.69-4.92c1.13-2.12,1.7-4.57,1.7-7.36s-.57-5.24-1.7-7.36c-1.14-2.12-2.7-3.76-4.69-4.92s-4.23-1.74-6.71-1.74c-3.94,0-7.1,1.25-9.48,3.76v.02Z"/>
          <path class="cls-1" d="m412.48,466.43c2.27-1.37,5.03-2.06,8.29-2.06v4.88h-1.48c-3.38,0-6.19.91-8.42,2.73s-3.34,4.79-3.34,8.9v19.21h-4.56v-35.09h4.56v7.26c1.03-2.53,2.68-4.48,4.95-5.85v.02Z"/>
          <path class="cls-1" d="m442.68,496.12v3.98h-4.18c-3.38,0-5.91-.8-7.58-2.41s-2.51-4.32-2.51-8.13v-20.63h-5.33v-3.92h5.33v-8.87h4.56v8.87h9.64v3.92h-9.64v20.69c0,2.48.45,4.19,1.35,5.11.9.92,2.48,1.38,4.75,1.38h3.61Z"/>
          <path class="cls-1" d="m491.62,466.72c2.63,1.44,4.7,3.51,6.2,6.23s2.25,5.92,2.25,9.61-.75,6.88-2.25,9.58c-1.5,2.7-3.57,4.78-6.2,6.23-2.63,1.46-5.62,2.19-8.96,2.19s-6.34-.73-9-2.19-4.75-3.54-6.27-6.27c-1.52-2.72-2.28-5.9-2.28-9.54s.76-6.89,2.28-9.61c1.52-2.72,3.61-4.8,6.27-6.23s5.66-2.15,9-2.15,6.33.72,8.96,2.15Zm-15.39,3.31c-1.97,1.03-3.56,2.6-4.76,4.72s-1.8,4.72-1.8,7.81.6,5.68,1.8,7.78c1.2,2.1,2.78,3.66,4.76,4.69,1.97,1.03,4.11,1.54,6.43,1.54s4.38-.51,6.33-1.54c1.95-1.03,3.52-2.59,4.72-4.69s1.8-4.69,1.8-7.78-.6-5.69-1.8-7.81c-1.2-2.12-2.77-3.7-4.72-4.72-1.95-1.03-4.06-1.54-6.33-1.54s-4.46.51-6.43,1.54Z"/>
          <path class="cls-1" d="m516.1,457.46c-1.31,1.22-1.96,3.27-1.96,6.14v1.41h8.8v3.98h-8.8v31.1h-4.5v-31.1h-5.21v-3.98h5.21v-1.74c0-3.94,1.07-6.9,3.21-8.87s5.5-2.87,10.09-2.7v3.98c-3.26-.04-5.54.55-6.84,1.77h0Z"/>
          <path class="cls-1" d="m562.34,496.12v3.98h-4.18c-3.39,0-5.91-.8-7.58-2.41s-2.51-4.32-2.51-8.13v-20.63h-5.33v-3.92h5.33v-8.87h4.56v8.87h9.64v3.92h-9.64v20.69c0,2.48.45,4.19,1.35,5.11.9.92,2.48,1.38,4.76,1.38h3.6Z"/>
          <path class="cls-1" d="m597.2,468.26c2.55,2.59,3.82,6.39,3.82,11.41v20.44h-4.43v-20.11c0-3.81-.96-6.74-2.89-8.77s-4.56-3.05-7.9-3.05c-3.51,0-6.31,1.12-8.39,3.37s-3.12,5.56-3.12,9.93v18.64h-4.56v-47.56h4.56v21.08c.9-3,2.53-5.29,4.88-6.88,2.36-1.58,5.05-2.38,8.1-2.38,4.07,0,7.38,1.3,9.93,3.89h0Z"/>
          <path class="cls-1" d="m633.8,494.45c2.14-1.58,3.43-3.73,3.86-6.43h4.76c-.64,3.73-2.42,6.75-5.33,9.06-2.91,2.31-6.6,3.47-11.05,3.47-3.34,0-6.31-.72-8.9-2.15s-4.62-3.51-6.07-6.23-2.18-5.92-2.18-9.61.73-6.89,2.18-9.61,3.48-4.8,6.07-6.23c2.59-1.44,5.56-2.15,8.9-2.15s6.39.72,8.9,2.15c2.51,1.44,4.41,3.35,5.72,5.75s1.96,5.01,1.96,7.84c0,1.2-.09,2.29-.26,3.28h-29.05c.04,2.96.65,5.43,1.83,7.42,1.18,1.99,2.71,3.46,4.59,4.4s3.92,1.41,6.11,1.41c3.17,0,5.83-.79,7.97-2.38h-.01Zm-14.01-24.81c-1.89.94-3.42,2.39-4.59,4.34-1.18,1.95-1.81,4.38-1.9,7.29h24.81c.17-2.87-.3-5.29-1.41-7.26s-2.61-3.43-4.5-4.37-3.94-1.41-6.17-1.41-4.35.47-6.23,1.41h-.01Z"/>
        </g>
        <g>
          <path class="cls-1" d="m977.94,468.08c2.51,1.84,4.23,4.28,5.17,7.33v-9.64h4.43v35.92c0,3.26-.69,6.12-2.06,8.58s-3.28,4.37-5.72,5.72-5.23,2.02-8.35,2.02c-4.58,0-8.34-1.1-11.28-3.31-2.93-2.21-4.85-5.2-5.75-8.96h4.5c.77,2.57,2.2,4.61,4.27,6.11,2.08,1.5,4.75,2.25,8,2.25,2.23,0,4.25-.48,6.07-1.45,1.82-.96,3.25-2.39,4.31-4.27,1.05-1.89,1.57-4.11,1.57-6.68v-10.47c-.94,3.04-2.67,5.48-5.17,7.33-2.51,1.84-5.54,2.76-9.09,2.76-3.17,0-6.01-.73-8.51-2.19-2.51-1.46-4.46-3.54-5.85-6.27-1.39-2.72-2.09-5.9-2.09-9.54s.7-6.89,2.09-9.61c1.39-2.72,3.33-4.8,5.82-6.23,2.48-1.44,5.33-2.15,8.55-2.15,3.56,0,6.59.92,9.09,2.76h0Zm-17.42,4.98c-2.38,2.51-3.57,5.92-3.57,10.25s1.19,7.74,3.57,10.25,5.54,3.76,9.48,3.76c2.48,0,4.72-.58,6.71-1.74,1.99-1.16,3.56-2.8,4.69-4.92,1.13-2.12,1.7-4.57,1.7-7.36s-.57-5.24-1.7-7.36c-1.14-2.12-2.7-3.76-4.69-4.92s-4.23-1.74-6.71-1.74c-3.94,0-7.1,1.25-9.48,3.76v.02Z"/>
          <path class="cls-1" d="m1006.83,467.18c2.27-1.37,5.03-2.06,8.29-2.06v4.88h-1.48c-3.38,0-6.19.91-8.42,2.73s-3.34,4.79-3.34,8.9v19.21h-4.56v-35.09h4.56v7.26c1.03-2.53,2.68-4.48,4.95-5.85v.02Z"/>
          <path class="cls-1" d="m1045.93,467.47c2.63,1.44,4.7,3.51,6.2,6.23s2.25,5.92,2.25,9.61-.75,6.88-2.25,9.58c-1.5,2.7-3.57,4.78-6.2,6.23-2.63,1.46-5.62,2.19-8.96,2.19s-6.34-.73-9-2.19-4.75-3.54-6.27-6.27c-1.52-2.72-2.28-5.9-2.28-9.54s.76-6.89,2.28-9.61c1.52-2.72,3.61-4.8,6.27-6.23,2.66-1.44,5.66-2.15,9-2.15s6.33.72,8.96,2.15Zm-15.39,3.31c-1.97,1.03-3.56,2.6-4.76,4.72s-1.8,4.72-1.8,7.81.6,5.68,1.8,7.78,2.79,3.66,4.76,4.69,4.11,1.54,6.43,1.54,4.38-.51,6.33-1.54,3.52-2.59,4.72-4.69,1.8-4.69,1.8-7.78-.6-5.69-1.8-7.81c-1.2-2.12-2.77-3.7-4.72-4.72-1.95-1.03-4.06-1.54-6.33-1.54s-4.46.51-6.43,1.54Z"/>
          <path class="cls-1" d="m1092.75,465.77v35.09h-4.5v-8.68c-.9,3.04-2.53,5.36-4.88,6.94-2.36,1.59-5.06,2.38-8.1,2.38-4.11,0-7.44-1.29-9.99-3.89-2.55-2.59-3.82-6.39-3.82-11.41v-20.44h4.5v20.05c0,3.86.96,6.8,2.89,8.84s4.56,3.05,7.91,3.05,6.31-1.12,8.39-3.37,3.12-5.56,3.12-9.93v-18.64h4.5-.02Z"/>
          <path class="cls-1" d="m1129.86,467.47c2.46,1.44,4.39,3.51,5.78,6.23s2.09,5.92,2.09,9.61-.7,6.82-2.09,9.54-3.33,4.81-5.82,6.27c-2.48,1.46-5.31,2.19-8.48,2.19-3.6,0-6.64-.92-9.12-2.76-2.49-1.84-4.2-4.28-5.14-7.33v26.22h-4.5v-51.67h4.5v9.64c.94-3.04,2.66-5.48,5.14-7.33,2.48-1.84,5.53-2.76,9.12-2.76,3.21,0,6.05.72,8.51,2.15h0Zm-16.45,3.57c-1.99,1.16-3.55,2.79-4.66,4.92-1.11,2.12-1.67,4.57-1.67,7.36s.56,5.24,1.67,7.36,2.67,3.76,4.66,4.92,4.23,1.74,6.72,1.74c3.98,0,7.15-1.25,9.51-3.76s3.53-5.92,3.53-10.25-1.18-7.74-3.53-10.25c-2.36-2.51-5.53-3.76-9.51-3.76-2.49,0-4.72.58-6.72,1.74v-.02Z"/>
        </g>
      </g>
    </g>
  </g>
</svg>