<?xml version="1.0" encoding="UTF-8"?>
<svg id="Layer_2" data-name="Layer 2" xmlns="http://www.w3.org/2000/svg" viewBox="0 0 224.13 90">
  <defs>
    <style>
      .cls-1 {
        fill: #fff;
        stroke-width: 0px;
      }
    </style>
  </defs>
  <g id="Layer_1-2" data-name="Layer 1">
    <path class="cls-1" d="m155.43,16.38C89.69-20.17-49.56,11.47,18.07,42.87,2.5,33.92,17.4-.85,155.43,16.38Z"/>
    <g>
      <path class="cls-1" d="m31.45,24.75l6.8.02.53,17.53,8.22-17.52h4.32s.61,17.53.61,17.53l8.25-17.5h2.68s-12.7,26.45-12.7,26.45h-4.51s-.72-16.78-.72-16.78l-7.86,16.75h-4.56s-1.06-26.48-1.06-26.48Z"/>
      <path class="cls-1" d="m57.57,51.28l13.75-26.44h5.9s1.84,26.48,1.84,26.48l-6.83-.02-.38-5.99-8.49-.02-3.12,5.99h-2.68Zm6.98-8.33l7.16.02-.78-12.45-6.39,12.44Z"/>
      <path class="cls-1" d="m84.54,27.22l.51-2.35,20.82.05-.51,2.35-7.07-.02-5.24,24.1-6.76-.02,5.24-24.1-6.99-.02Z"/>
      <path class="cls-1" d="m102.63,51.38l5.75-26.45,16.61.04-.51,2.39-9.85-.02-1.82,8.38,8.31.02-.5,2.28-8.31-.02-2.42,11.06,11.42.03-.51,2.35-18.19-.04Z"/>
      <path class="cls-1" d="m123.53,51.42l5.75-26.45,10.49.02,1.99.11c1.05.13,1.85.26,2.42.39.57.14,1.22.4,1.97.79.74.39,1.33,1.01,1.76,1.84.43.83.62,1.75.56,2.76-.05.83-.26,1.65-.64,2.44-.38.8-1.06,1.65-2.04,2.55-.98.9-2.25,1.58-3.83,2.01l-1.21.22,1,.22c2.39.69,3.53,2.14,3.41,4.35,0,.17-.02.36-.03.55-.01.2-.02.36-.03.48l-.28,1.32-.17.84-.17.77-.24,1.25c-.07.29-.13.57-.17.83-.04.26-.07.52-.08.79-.04.74.07,1.38.34,1.95l-7.03-.02c-.08-.32-.14-.59-.16-.81-.03-.22-.03-.49-.01-.81.03-.54.2-1.46.5-2.76l.55-2.17.16-.7c.07-.29.13-.72.19-1.27s.09-.84.09-.86c.07-1.27-.16-2.16-.68-2.65-.53-.49-1.45-.74-2.78-.74h-2.07s-2.78,12.74-2.78,12.74l-6.74-.02Zm9.99-14.75h1.99c1.03,0,1.78-.05,2.27-.17.48-.12,1.08-.42,1.78-.9.7-.48,1.26-1.23,1.67-2.26.41-1.03.63-1.95.68-2.76.13-2.3-1.15-3.46-3.83-3.46h-2.48s-2.07,9.55-2.07,9.55Z"/>
      <path class="cls-1" d="m151.13,27.37l.51-2.35,20.82.05-.51,2.35-7.07-.02-5.24,24.1-6.76-.02,5.24-24.1-6.99-.02Z"/>
      <path class="cls-1" d="m169.23,51.53l5.75-26.45,6.76.02-5.75,26.45-6.76-.02Z"/>
      <path class="cls-1" d="m183.67,27.45l.51-2.35,20.82.05-.51,2.35-7.07-.02-5.24,24.1-6.76-.02,5.24-24.1-6.99-.02Z"/>
      <path class="cls-1" d="m201.77,51.6l5.75-26.45,16.61.04-.51,2.39-9.85-.02-1.82,8.38,8.31.02-.5,2.28-8.31-.02-2.42,11.06,11.42.03-.51,2.35-18.19-.04Z"/>
    </g>
    <g>
      <path class="cls-1" d="m32.5,58.69h4.83c1.04,0,1.89.29,2.47.85.54.49.85,1.2.85,2.08,0,1.32-.6,2.11-1.77,2.52v.05c1.33.37,2.26,1.32,2.26,2.86,0,.94-.29,1.71-.85,2.28-.6.62-1.55.99-2.75.99h-5.04v-11.63Zm4.82,5.11c1.42,0,2.23-.83,2.23-2.1s-.85-2.05-2.2-2.05h-3.76v4.15h3.73Zm.16,5.53c.89,0,1.55-.26,1.97-.67.37-.37.59-.91.59-1.59,0-1.48-1.02-2.33-2.55-2.33h-3.89v4.59h3.89Z"/>
      <path class="cls-1" d="m42.78,67.85v-5.94h1.01v5.87c0,1.27.76,1.89,1.98,1.89,1.43,0,2.44-1.07,2.44-2.51v-5.25h.99v8.41h-.99v-1.24h-.03c-.59.81-1.3,1.43-2.64,1.43-1.63,0-2.77-.98-2.77-2.67Z"/>
      <path class="cls-1" d="m51.33,58.69h1.01v1.43h-1.01v-1.43Zm0,3.22h1.01v8.41h-1.01v-8.41Z"/>
      <path class="cls-1" d="m54.51,58.69h1.01v11.63h-1.01v-11.63Z"/>
      <path class="cls-1" d="m57.22,66.15c0-2.8,1.59-4.41,3.6-4.41,1.29,0,2.23.6,2.77,1.58h.03v-4.62h1.01v11.63h-1.01v-1.25h-.03c-.62.96-1.46,1.48-2.73,1.48-2.26,0-3.63-1.82-3.63-4.41Zm6.48.02c0-2.07-.99-3.58-2.81-3.58-1.66,0-2.62,1.48-2.62,3.58,0,1.97.85,3.55,2.62,3.55s2.81-1.45,2.81-3.55Z"/>
      <path class="cls-1" d="m66.76,58.69h1.01v1.43h-1.01v-1.43Zm0,3.22h1.01v8.41h-1.01v-8.41Z"/>
      <path class="cls-1" d="m69.88,61.92h1.01v1.29h.03c.57-.85,1.48-1.46,2.81-1.46,1.56,0,2.68.93,2.68,2.62v5.97h-1.01v-5.87c0-1.27-.73-1.85-1.92-1.85-1.43,0-2.6,1.01-2.6,2.39v5.34h-1.01v-8.41Z"/>
      <path class="cls-1" d="m78.37,71.08h.98c.18.98,1.14,1.37,2.36,1.37,1.79,0,2.64-.93,2.64-2.41v-1.33h-.05c-.62.94-1.4,1.46-2.67,1.46-2.21,0-3.61-1.72-3.61-4.2,0-2.73,1.66-4.23,3.61-4.23,1.3,0,2.12.57,2.67,1.48h.05v-1.3h.99v8.09c0,.94-.28,1.71-.78,2.26-.63.67-1.56,1.01-2.81,1.01-2.07,0-3.22-.94-3.37-2.2Zm6.04-5.12c0-1.98-.88-3.37-2.72-3.37-1.66,0-2.64,1.35-2.64,3.4,0,1.92.85,3.34,2.62,3.34,1.87,0,2.73-1.35,2.73-3.37Z"/>
      <path class="cls-1" d="m89.81,66.55h1.09c.11,1.97,1.45,3.08,3.63,3.08,1.71,0,2.98-.86,2.98-2.44s-1.09-2.03-3.58-2.54c-2.15-.42-3.66-1.07-3.66-3.11,0-1.85,1.56-3.07,3.89-3.07,2.59,0,3.89,1.4,4.1,3.4h-1.06c-.2-1.64-1.37-2.49-3.03-2.49-1.77,0-2.85.85-2.85,2.13,0,1.38,1.07,1.81,3.16,2.2,2.26.44,4.13.99,4.13,3.43,0,2.07-1.66,3.4-4.1,3.4-3.06,0-4.57-1.72-4.7-3.99Z"/>
      <path class="cls-1" d="m99.99,66.13c0-2.52,1.51-4.41,3.84-4.41,2.7,0,3.63,2.23,3.61,4.59h-6.41c.05,1.89.96,3.37,2.88,3.37,1.4,0,2.13-.75,2.46-1.89h.98c-.36,1.66-1.55,2.75-3.43,2.75-2.52,0-3.92-1.89-3.92-4.41Zm6.39-.62c-.05-1.66-.83-2.96-2.55-2.96s-2.6,1.29-2.78,2.96h5.34Z"/>
      <path class="cls-1" d="m109.11,61.92h1.01v1.56h.03c.52-.98,1.4-1.63,2.57-1.63.13,0,.21.02.28.03v.99c-.6-.1-1.27.03-1.79.41-.65.49-1.09,1.27-1.09,2.26v4.78h-1.01v-8.41Z"/>
      <path class="cls-1" d="m113.86,61.92h1.07l1.81,5.34c.28.81.68,2.13.68,2.13h.03s.42-1.32.7-2.13l1.89-5.34h1.02l-3.04,8.41h-1.19l-2.98-8.41Z"/>
      <path class="cls-1" d="m122.46,58.69h1.01v1.43h-1.01v-1.43Zm0,3.22h1.01v8.41h-1.01v-8.41Z"/>
      <path class="cls-1" d="m125.15,66.13c0-2.51,1.4-4.41,3.84-4.41,1.85,0,3.11,1.01,3.38,2.73h-1.01c-.24-1.25-1.07-1.89-2.38-1.89-1.94,0-2.8,1.61-2.8,3.56s.88,3.55,2.78,3.55c1.43,0,2.33-.89,2.49-2.25h.96c-.2,1.9-1.45,3.11-3.45,3.11-2.46,0-3.82-1.9-3.82-4.41Z"/>
      <path class="cls-1" d="m133.54,66.13c0-2.52,1.51-4.41,3.84-4.41,2.7,0,3.63,2.23,3.61,4.59h-6.41c.05,1.89.96,3.37,2.88,3.37,1.4,0,2.13-.75,2.46-1.89h.98c-.36,1.66-1.55,2.75-3.43,2.75-2.52,0-3.92-1.89-3.92-4.41Zm6.39-.62c-.05-1.66-.83-2.96-2.55-2.96s-2.6,1.29-2.78,2.96h5.34Z"/>
      <path class="cls-1" d="m142.11,67.71h1.02c.15,1.42,1.12,1.98,2.47,1.98s2.13-.65,2.13-1.63-.52-1.24-2.25-1.63c-1.71-.39-3.07-.8-3.07-2.42,0-1.4,1.2-2.28,2.93-2.28,2,0,2.93,1.01,3.12,2.49h-1.01c-.11-1.09-.86-1.66-2.12-1.66s-1.92.62-1.92,1.4c0,.96.8,1.19,2.41,1.56,1.69.36,2.91.78,2.91,2.52,0,1.5-1.2,2.51-3.16,2.51-2.25,0-3.38-1.22-3.48-2.85Z"/>
      <path class="cls-1" d="m153.44,58.69h7.91v.96h-6.82v4.18h6.25v.94h-6.25v4.54h7v1.01h-8.09v-11.63Z"/>
      <path class="cls-1" d="m163.38,61.92h1.01v1.29h.03c.57-.85,1.48-1.46,2.81-1.46,1.56,0,2.68.93,2.68,2.62v5.97h-1.01v-5.87c0-1.27-.73-1.85-1.92-1.85-1.43,0-2.6,1.01-2.6,2.39v5.34h-1.01v-8.41Z"/>
      <path class="cls-1" d="m171.87,71.08h.98c.18.98,1.14,1.37,2.36,1.37,1.79,0,2.64-.93,2.64-2.41v-1.33h-.05c-.62.94-1.4,1.46-2.67,1.46-2.21,0-3.61-1.72-3.61-4.2,0-2.73,1.66-4.23,3.61-4.23,1.3,0,2.12.57,2.67,1.48h.05v-1.3h.99v8.09c0,.94-.28,1.71-.78,2.26-.63.67-1.56,1.01-2.81,1.01-2.07,0-3.22-.94-3.37-2.2Zm6.04-5.12c0-1.98-.88-3.37-2.72-3.37-1.66,0-2.64,1.35-2.64,3.4,0,1.92.85,3.34,2.62,3.34,1.87,0,2.73-1.35,2.73-3.37Z"/>
      <path class="cls-1" d="m180.96,58.69h1.01v1.43h-1.01v-1.43Zm0,3.22h1.01v8.41h-1.01v-8.41Z"/>
      <path class="cls-1" d="m184.09,61.92h1.01v1.29h.03c.57-.85,1.48-1.46,2.81-1.46,1.56,0,2.68.93,2.68,2.62v5.97h-1.01v-5.87c0-1.27-.73-1.85-1.92-1.85-1.43,0-2.6,1.01-2.6,2.39v5.34h-1.01v-8.41Z"/>
      <path class="cls-1" d="m192.22,66.13c0-2.52,1.51-4.41,3.84-4.41,2.7,0,3.63,2.23,3.61,4.59h-6.41c.05,1.89.96,3.37,2.88,3.37,1.4,0,2.13-.75,2.46-1.89h.98c-.36,1.66-1.55,2.75-3.43,2.75-2.52,0-3.92-1.89-3.92-4.41Zm6.39-.62c-.05-1.66-.83-2.96-2.55-2.96s-2.6,1.29-2.78,2.96h5.34Z"/>
      <path class="cls-1" d="m200.89,66.13c0-2.52,1.51-4.41,3.84-4.41,2.7,0,3.63,2.23,3.61,4.59h-6.41c.05,1.89.96,3.37,2.88,3.37,1.4,0,2.13-.75,2.46-1.89h.98c-.36,1.66-1.55,2.75-3.43,2.75-2.52,0-3.92-1.89-3.92-4.41Zm6.39-.62c-.05-1.66-.83-2.96-2.55-2.96s-2.6,1.29-2.78,2.96h5.34Z"/>
      <path class="cls-1" d="m210,61.92h1.01v1.56h.03c.52-.98,1.4-1.63,2.57-1.63.13,0,.21.02.28.03v.99c-.6-.1-1.27.03-1.79.41-.65.49-1.09,1.27-1.09,2.26v4.78h-1.01v-8.41Z"/>
      <path class="cls-1" d="m214.8,67.71h1.02c.15,1.42,1.12,1.98,2.47,1.98s2.13-.65,2.13-1.63-.52-1.24-2.25-1.63c-1.71-.39-3.07-.8-3.07-2.42,0-1.4,1.2-2.28,2.93-2.28,2,0,2.93,1.01,3.12,2.49h-1.01c-.11-1.09-.86-1.66-2.12-1.66s-1.92.62-1.92,1.4c0,.96.8,1.19,2.41,1.56,1.69.36,2.91.78,2.91,2.52,0,1.5-1.2,2.51-3.16,2.51-2.25,0-3.38-1.22-3.48-2.85Z"/>
    </g>
    <g>
      <g>
        <circle class="cls-1" cx="158.83" cy="85.63" r="1.16"/>
        <path class="cls-1" d="m128.76,86.79v-3.57c0-.31-.01-.77-.37-1.12-.22-.21-.57-.35-.89-.35s-.66.13-.87.32c-.44.38-.42.92-.42,1.32v3.41h-1.88v-3.44c0-.76.03-1.56.82-2.35.61-.62,1.37-.9,2.4-.9,1.14,0,1.96.39,2.41.87.63.69.71,1.61.71,2.39v3.44h-1.88Z"/>
        <g>
          <path class="cls-1" d="m149.19,80.18h2.02v6.6h-2.02v-6.6Z"/>
          <circle class="cls-1" cx="150.2" cy="78.73" r="1.15"/>
        </g>
        <path class="cls-1" d="m136.57,86.05c-.58.56-1.16.77-1.95.77s-1.48-.26-2.06-.77c-.76-.67-1.15-1.56-1.15-2.59,0-.94.37-1.79,1.05-2.45.61-.6,1.36-.91,2.2-.91s1.41.27,1.85.83v-3.11h1.94v8.96h-1.88v-.74Zm-1.52-.98c.83,0,1.53-.69,1.53-1.59s-.7-1.66-1.61-1.66-1.63.75-1.63,1.63.71,1.62,1.7,1.62Z"/>
        <path class="cls-1" d="m153.69,84.76v.06c0,.36.28.61.69.61s.64-.2.64-.56c0-.52-.51-.5-1.31-.75-1.1-.34-1.64-.94-1.64-1.9,0-1.25.91-2.13,2.43-2.13,1.32,0,2.16.75,2.23,1.96h-1.7c-.07-.42-.23-.59-.56-.59-.37,0-.58.21-.58.52,0,.44.39.55,1.04.72,1.31.36,1.96.85,1.96,1.91,0,1.28-1.01,2.21-2.55,2.21-1.42,0-2.3-.77-2.43-2.07h1.77Z"/>
        <path class="cls-1" d="m148.71,80.19l-2.91,6.83-2.07-4.28-1.89,4.28-2.94-6.83h2.01l1.19,2.73.9-1.99-.34-.74h1.76l1.21,2.85,1.06-2.85h2.01Z"/>
        <path class="cls-1" d="m121.57,86.05c-.58.56-1.17.77-1.95.77s-1.49-.26-2.06-.77c-.76-.68-1.15-1.56-1.15-2.59,0-.95.37-1.79,1.06-2.46.61-.6,1.36-.91,2.2-.91s1.41.27,1.85.83v-.74h1.94v6.59h-1.88v-.74Zm-1.52-.98c.83,0,1.53-.69,1.53-1.6s-.7-1.66-1.61-1.66-1.63.75-1.63,1.63.71,1.62,1.71,1.62Z"/>
      </g>
      <g>
        <path class="cls-1" d="m57.06,83.61v3.28h-.79v-7.87h2.36c.89,0,1.55.2,1.98.61.44.41.65.97.65,1.69s-.23,1.29-.68,1.69c-.45.4-1.1.6-1.96.6h-1.56Zm2.96-1.09c.3-.28.45-.68.45-1.2s-.15-.94-.45-1.22-.79-.42-1.46-.42h-1.5v3.26h1.5c.68,0,1.16-.14,1.46-.42Z"/>
        <path class="cls-1" d="m66.65,81.19c.44.32.74.74.9,1.27v-1.67h.77v6.1h-.77v-1.67c-.16.53-.46.95-.9,1.27-.44.32-.96.48-1.58.48-.55,0-1.04-.13-1.48-.38-.44-.25-.77-.62-1.02-1.09-.24-.47-.36-1.03-.36-1.66s.12-1.2.36-1.67c.24-.47.58-.83,1.01-1.08.43-.25.93-.37,1.48-.37.62,0,1.14.16,1.58.48Zm-3.03.87c-.41.44-.62,1.03-.62,1.78s.21,1.35.62,1.78.96.65,1.65.65c.43,0,.82-.1,1.17-.3.35-.2.62-.49.82-.85.2-.37.3-.79.3-1.28s-.1-.91-.3-1.28c-.2-.37-.47-.65-.82-.85-.35-.2-.74-.3-1.17-.3-.68,0-1.23.22-1.65.65Z"/>
        <path class="cls-1" d="m71.66,81.04c.39-.24.87-.36,1.44-.36v.85h-.26c-.59,0-1.08.16-1.46.47-.39.32-.58.83-.58,1.55v3.34h-.79v-6.1h.79v1.26c.18-.44.47-.78.86-1.02Z"/>
        <path class="cls-1" d="m76.91,86.2v.69h-.73c-.59,0-1.03-.14-1.32-.42s-.44-.75-.44-1.41v-3.58h-.93v-.68h.93v-1.54h.79v1.54h1.67v.68h-1.67v3.6c0,.43.08.73.23.89.16.16.43.24.83.24h.63Z"/>
        <path class="cls-1" d="m85.41,81.09c.46.25.82.61,1.08,1.08.26.47.39,1.03.39,1.67s-.13,1.19-.39,1.66c-.26.47-.62.83-1.08,1.08-.46.25-.98.38-1.56.38s-1.1-.13-1.56-.38c-.46-.25-.82-.62-1.09-1.09-.26-.47-.4-1.03-.4-1.66s.13-1.2.4-1.67c.26-.47.63-.83,1.09-1.08s.98-.37,1.56-.37,1.1.12,1.56.37Zm-2.67.58c-.34.18-.62.45-.83.82-.21.37-.31.82-.31,1.36s.1.99.31,1.35c.21.36.48.64.83.82.34.18.71.27,1.12.27s.76-.09,1.1-.27c.34-.18.61-.45.82-.82.21-.36.31-.81.31-1.35s-.1-.99-.31-1.36c-.21-.37-.48-.64-.82-.82-.34-.18-.71-.27-1.1-.27s-.77.09-1.12.27Z"/>
        <path class="cls-1" d="m89.67,79.48c-.23.21-.34.57-.34,1.07v.25h1.53v.69h-1.53v5.4h-.78v-5.4h-.9v-.69h.9v-.3c0-.68.19-1.2.56-1.54.37-.34.96-.5,1.75-.47v.69c-.57,0-.96.09-1.19.31Z"/>
        <path class="cls-1" d="m97.7,86.2v.69h-.73c-.59,0-1.03-.14-1.32-.42s-.44-.75-.44-1.41v-3.58h-.93v-.68h.93v-1.54h.79v1.54h1.67v.68h-1.67v3.6c0,.43.08.73.23.89.16.16.43.24.83.24h.63Z"/>
        <path class="cls-1" d="m103.76,81.36c.44.45.66,1.11.66,1.98v3.55h-.77v-3.49c0-.66-.17-1.17-.5-1.52-.33-.35-.79-.53-1.37-.53-.61,0-1.1.2-1.46.59-.36.39-.54.97-.54,1.73v3.24h-.79v-8.26h.79v3.66c.16-.52.44-.92.85-1.19.41-.28.88-.41,1.41-.41.71,0,1.28.23,1.73.68Z"/>
        <path class="cls-1" d="m110.12,85.91c.37-.28.6-.65.67-1.12h.83c-.11.65-.42,1.17-.93,1.57-.51.4-1.15.6-1.92.6-.58,0-1.1-.12-1.55-.37-.45-.25-.8-.61-1.06-1.08s-.38-1.03-.38-1.67.13-1.2.38-1.67.6-.83,1.06-1.08c.45-.25.97-.37,1.55-.37s1.11.12,1.55.37c.44.25.77.58.99,1,.23.42.34.87.34,1.36,0,.21-.01.4-.04.57h-5.05c0,.51.11.94.32,1.29.2.35.47.6.8.76.33.16.68.25,1.06.25.55,0,1.01-.14,1.38-.41Zm-2.43-4.31c-.33.16-.59.42-.8.75-.2.34-.31.76-.33,1.27h4.31c.03-.5-.05-.92-.25-1.26s-.45-.6-.78-.76c-.33-.16-.68-.25-1.07-.25s-.76.08-1.08.25Z"/>
      </g>
      <g>
        <path class="cls-1" d="m169.91,81.32c.44.32.74.74.9,1.27v-1.67h.77v6.24c0,.57-.12,1.06-.36,1.49-.24.43-.57.76-.99.99s-.91.35-1.45.35c-.8,0-1.45-.19-1.96-.58-.51-.38-.84-.9-1-1.56h.78c.13.45.38.8.74,1.06.36.26.82.39,1.39.39.39,0,.74-.08,1.06-.25.32-.17.57-.42.75-.74.18-.33.27-.71.27-1.16v-1.82c-.16.53-.46.95-.9,1.27-.44.32-.96.48-1.58.48-.55,0-1.04-.13-1.48-.38-.44-.25-.77-.62-1.02-1.09-.24-.47-.36-1.03-.36-1.66s.12-1.2.36-1.67c.24-.47.58-.83,1.01-1.08.43-.25.93-.37,1.48-.37.62,0,1.14.16,1.58.48Zm-3.03.87c-.41.44-.62,1.03-.62,1.78s.21,1.35.62,1.78.96.65,1.65.65c.43,0,.82-.1,1.17-.3.35-.2.62-.49.82-.85.2-.37.3-.79.3-1.28s-.1-.91-.3-1.28c-.2-.37-.47-.65-.82-.85-.35-.2-.74-.3-1.17-.3-.68,0-1.23.22-1.65.65Z"/>
        <path class="cls-1" d="m174.93,81.17c.39-.24.87-.36,1.44-.36v.85h-.26c-.59,0-1.08.16-1.46.47-.39.32-.58.83-.58,1.55v3.34h-.79v-6.1h.79v1.26c.18-.44.47-.78.86-1.02Z"/>
        <path class="cls-1" d="m181.72,81.22c.46.25.82.61,1.08,1.08.26.47.39,1.03.39,1.67s-.13,1.19-.39,1.66c-.26.47-.62.83-1.08,1.08-.46.25-.98.38-1.56.38s-1.1-.13-1.56-.38c-.46-.25-.82-.62-1.09-1.09-.26-.47-.4-1.03-.4-1.66s.13-1.2.4-1.67c.26-.47.63-.83,1.09-1.08.46-.25.98-.37,1.56-.37s1.1.12,1.56.37Zm-2.67.58c-.34.18-.62.45-.83.82-.21.37-.31.82-.31,1.36s.1.99.31,1.35c.21.36.48.64.83.82.34.18.71.27,1.12.27s.76-.09,1.1-.27c.34-.18.61-.45.82-.82.21-.36.31-.81.31-1.35s-.1-.99-.31-1.36c-.21-.37-.48-.64-.82-.82-.34-.18-.71-.27-1.1-.27s-.77.09-1.12.27Z"/>
        <path class="cls-1" d="m189.85,80.92v6.1h-.78v-1.51c-.16.53-.44.93-.85,1.21-.41.28-.88.41-1.41.41-.71,0-1.29-.22-1.74-.68-.44-.45-.66-1.11-.66-1.98v-3.55h.78v3.48c0,.67.17,1.18.5,1.54.34.35.79.53,1.37.53.61,0,1.1-.2,1.46-.59.36-.39.54-.97.54-1.73v-3.24h.78Z"/>
        <path class="cls-1" d="m196.3,81.22c.43.25.76.61,1,1.08.24.47.36,1.03.36,1.67s-.12,1.19-.36,1.66c-.24.47-.58.84-1.01,1.09-.43.25-.92.38-1.47.38-.63,0-1.15-.16-1.59-.48-.43-.32-.73-.74-.89-1.27v4.56h-.78v-8.98h.78v1.67c.16-.53.46-.95.89-1.27.43-.32.96-.48,1.59-.48.56,0,1.05.12,1.48.37Zm-2.86.62c-.35.2-.62.49-.81.85-.19.37-.29.79-.29,1.28s.1.91.29,1.28c.19.37.46.65.81.85.35.2.74.3,1.17.3.69,0,1.24-.22,1.65-.65.41-.44.61-1.03.61-1.78s-.2-1.35-.61-1.78c-.41-.44-.96-.65-1.65-.65-.43,0-.82.1-1.17.3Z"/>
      </g>
    </g>
  </g>
</svg>